# xmcd
#
# Track frame offsets:
#	150
#	12595
#	25085
#	45986
#	63694
#	75632
#	88771
#	100576
#	117316
#	129085
#
# Disc length: 1898 seconds
#
# Revision: 1
# Processed by: cddbd v1.5.1PL0 Copyright (c) Steve Scherf et al.
# Submitted via: audiograbber 1.83.01
#
DISCID=7307680a
DTITLE=Glen Campbell - Rhinestone Cowboy
DYEAR=2003
DGENRE=Country
TTITLE0=By The Time I Get To Phoenix
TTITLE1=You'll Never Walk Alone
TTITLE2=Bridge Over Troubled Water
TTITLE3=Colleen
TTITLE4=The Impossible Dream
TTITLE5=Pretend
TTITLE6=You Don't Have To Say You Love Me
TTITLE7=Feelings
TTITLE8=Blue Sky Shining
TTITLE9=Rhinestone Cowboy
EXTD=
EXTT0=
EXTT1=
EXTT2=
EXTT3=
EXTT4=
EXTT5=
EXTT6=
EXTT7=
EXTT8=
EXTT9=
PLAYORDER=
